<svg xmlns="http://www.w3.org/2000/svg" width="42.611" height="36.53" viewBox="0 0 42.611 36.53">
  <g id="comment" transform="translate(0 -36.507)">
    <path id="Path_1187" data-name="Path 1187" d="M39.758,44.08a19.276,19.276,0,0,0-7.752-5.54,27.642,27.642,0,0,0-10.7-2.033,28.275,28.275,0,0,0-8.275,1.2,23.144,23.144,0,0,0-6.8,3.246,16.221,16.221,0,0,0-4.542,4.863A11.326,11.326,0,0,0,0,51.725a11.538,11.538,0,0,0,2.152,6.682,17.46,17.46,0,0,0,5.885,5.231,15.113,15.113,0,0,1-.618,1.807q-.357.856-.642,1.4A9.66,9.66,0,0,1,6,68.062q-.487.666-.737.939l-.82.9q-.57.631-.737.821a1.66,1.66,0,0,0-.19.214l-.166.2-.143.214q-.119.179-.107.225a.634.634,0,0,1-.047.237.314.314,0,0,0,.012.286v.024a1.2,1.2,0,0,0,.416.689.931.931,0,0,0,.725.213,17.847,17.847,0,0,0,2.711-.523,25.99,25.99,0,0,0,10.938-5.755,32.533,32.533,0,0,0,3.448.19,27.634,27.634,0,0,0,10.7-2.034,19.272,19.272,0,0,0,7.752-5.54,11.667,11.667,0,0,0,0-15.289Z" transform="translate(0 0)" fill="snow"/>
  </g>
</svg>
