<svg id="download-cloud-2-line" xmlns="http://www.w3.org/2000/svg" width="30" height="30" viewBox="0 0 30 30">
  <path id="Path_10" data-name="Path 10" d="M0,0H30V30H0Z" fill="none"/>
  <path id="Path_11" data-name="Path 11" d="M16,15.75v6.981l2.285-2.285,1.769,1.769-5.3,5.3-5.3-5.3,1.769-1.769L13.5,22.731V15.75ZM14.752,2a8.751,8.751,0,0,1,8.692,7.742,6.875,6.875,0,0,1-1.191,13.48V20.7a4.375,4.375,0,1,0-1.39-8.638,6.25,6.25,0,1,0-12.221,0,4.375,4.375,0,1,0-1.615,8.6l.225.038v2.517A6.875,6.875,0,0,1,6.059,9.743,8.75,8.75,0,0,1,14.752,2Z" transform="translate(0.248 0.5)" fill="#060620"/>
</svg>
